<svg viewBox="0 0 1024 1024" xmlns="http://www.w3.org/2000/svg" width="32" height="32"><path d="M335.752 244.783c-52.145 0-89.448 40.086-89.553 85.747v.025c.003 13.809 3.74 28.382 9.578 41.527 4.215 9.491 9.455 18.217 15.841 25.206-37.952 12.985-82.416 34.355-104.89 76.493l-1.211 2.271v136.41h340.47v-136.41l-1.211-2.27c-22.151-41.533-65.653-62.873-103.238-75.911 18.348-18.659 23.76-42.741 23.767-67.316v-.025c-.105-45.66-37.408-85.747-89.553-85.747zm-35.603 48.622c2.41.006 5.056.086 7.974.258 23.243 1.37 31.067 5.554 37.08 9.522 6.013 3.968 10.252 7.746 26.144 8.21h.01c12.384-.464 18.34-2.672 22.61-5.173 1.73-1.014 3.185-2.067 4.674-3.073 3.935 8.437 6.049 17.763 6.073 27.415-.008 27.485-4.733 46.732-29.934 62.483l2.465 18.58a422.403 422.403 0 0116.17 5.258c.769 3.206 1.657 7.411 2.254 11.882.626 4.683.872 9.556.486 13.215-.386 3.659-1.522 5.634-1.721 5.834-12.81 12.808-35.546 20.278-58.609 20.278-23.062 0-45.799-7.47-58.608-20.278-.2-.2-1.336-2.175-1.721-5.834-.386-3.659-.14-8.532.486-13.215.6-4.495 1.495-8.725 2.267-11.938a422.982 422.982 0 0116.01-5.201l1.47-19.91c-1.197-1.535-2.416-2.55-3.871-3.643-5.625-4.219-12.445-13.502-17.263-24.35-4.817-10.845-7.8-23.24-7.805-33.163.03-11.897 3.232-23.3 9.111-33.15 1.053-.391 2.162-.805 3.409-1.215 4.385-1.442 10.394-2.819 20.839-2.792zM255.63 425.638c-.018.135-.039.267-.056.402-.761 5.696-1.209 11.896-.554 18.101.654 6.205 2.291 12.887 7.638 18.233 18.25 18.251 45.872 26.31 73.167 26.31 27.296 0 54.917-8.058 73.168-26.31 5.347-5.346 6.984-12.028 7.638-18.233.654-6.205.207-12.405-.554-18.1l-.047-.333c27.747 12.167 54.568 29.594 69.366 55.614v110.549h-49.268v-77.947h-20.59v77.947H255.524v-77.947h-20.59v77.947h-48.827V481.322c14.827-26.068 41.72-43.512 69.524-55.684zM219.98 107.52c-109.934 0-199.5 89.188-199.5 198.912v411.136c0 109.724 89.566 198.912 199.5 198.912h584.04c109.934 0 199.5-89.188 199.5-198.912V306.432c0-109.724-89.566-198.912-199.5-198.912H219.98zm0 61.44h584.04c77.074 0 138.06 60.838 138.06 137.472v411.136c0 76.633-60.986 137.472-138.06 137.472H219.98c-77.074 0-138.06-60.84-138.06-137.472V306.432c0-76.634 60.986-137.472 138.06-137.472z"/></svg>
